<svg width="16" height="16" viewBox="0 0 16 16" fill="none" xmlns="http://www.w3.org/2000/svg">
<path d="M9.37453 2.45C9.37453 2.31193 9.2626 2.2 9.12453 2.2H7.12453C6.98646 2.2 6.87453 2.31193 6.87453 2.45V5.2H3.97512C3.73898 5.20016 3.63454 5.49769 3.81887 5.64531L6.59328 7.86406L6.87453 8.08965V11.7H6.12453C5.59802 11.7 5.08607 11.4674 4.65871 11.2068C4.21412 10.9357 3.76584 10.5737 3.34719 10.1971C3.2821 10.1385 3.20879 10.1184 3.15481 10.1199C3.10753 10.1213 3.07668 10.138 3.05129 10.1697C2.77789 10.5118 2.51528 10.8712 2.28078 11.1902C2.22743 11.2628 2.19854 11.3557 2.19973 11.4402C2.20087 11.5213 2.22726 11.5689 2.25246 11.5945C3.93977 13.3104 5.95819 13.7 8.12453 13.7C10.2909 13.7 12.3093 13.3104 13.9966 11.5945C14.0218 11.5689 14.0482 11.5213 14.0493 11.4402C14.0505 11.3557 14.0216 11.2628 13.9683 11.1902C13.7338 10.8712 13.4712 10.5118 13.1978 10.1697C13.1724 10.138 13.1415 10.1213 13.0943 10.1199C13.0403 10.1184 12.967 10.1385 12.9019 10.1971C12.4832 10.5737 12.0349 10.9357 11.5904 11.2068C11.163 11.4674 10.6511 11.7 10.1245 11.7H9.37453V8.08965L9.65578 7.86406L12.4302 5.64531C12.6145 5.49769 12.5101 5.20016 12.2739 5.2H9.37453V2.45ZM10.8745 3.7H12.2739C13.928 3.70017 14.6584 5.78286 13.3667 6.81621L10.8745 8.81035V9.88261C11.1899 9.68206 11.5386 9.40695 11.8989 9.08281C12.5726 8.4768 13.7094 8.40717 14.3696 9.2332C14.6661 9.60409 14.9484 9.99115 15.1773 10.3025C15.6506 10.9469 15.7323 11.9686 15.0659 12.6463C12.9737 14.7739 10.4749 15.2 8.12453 15.2C5.77414 15.2 3.27539 14.7739 1.18313 12.6463C0.516792 11.9686 0.598418 10.9469 1.0718 10.3025C1.30064 9.99115 1.58296 9.6041 1.87942 9.2332C2.53967 8.40717 3.67644 8.4768 4.35012 9.08281C4.71048 9.40695 5.05913 9.68206 5.37453 9.88261V8.81035L2.88235 6.81621C1.59065 5.78285 2.32102 3.70016 3.97512 3.7H5.37453V2.45C5.37453 1.4835 6.15803 0.699997 7.12453 0.699997H9.12453C10.091 0.7 10.8745 1.4835 10.8745 2.45V3.7Z" fill="black"/>
</svg>
